<svg width="323" height="55" viewBox="0 0 323 55" fill="none" xmlns="http://www.w3.org/2000/svg">
<circle cx="29" cy="30" r="24.5" fill="#11772F" stroke="#11772F"/>
<path d="M24.7141 37H20.5948L26.8714 18.8182H31.8253L38.093 37H33.9737L29.4194 22.973H29.2773L24.7141 37ZM24.4567 29.8533H34.1868V32.854H24.4567V29.8533Z" fill="#F7F3F3"/>
<line x1="62" y1="29.5" x2="104" y2="29.5" stroke="#11772F"/>
<path d="M124.995 26.6754H122.89C122.809 26.2256 122.658 25.8298 122.438 25.4879C122.217 25.1461 121.948 24.8559 121.628 24.6175C121.309 24.3791 120.951 24.1992 120.555 24.0778C120.164 23.9563 119.748 23.8956 119.307 23.8956C118.511 23.8956 117.798 24.0958 117.168 24.4961C116.543 24.8964 116.048 25.4834 115.684 26.2571C115.324 27.0308 115.144 27.9754 115.144 29.0909C115.144 30.2154 115.324 31.1645 115.684 31.9382C116.048 32.7119 116.545 33.2966 117.175 33.6925C117.805 34.0883 118.513 34.2862 119.3 34.2862C119.737 34.2862 120.151 34.2277 120.542 34.1108C120.938 33.9893 121.295 33.8117 121.615 33.5778C121.934 33.3439 122.204 33.0582 122.424 32.7209C122.649 32.379 122.804 31.9877 122.89 31.5469L124.995 31.5536C124.883 32.2328 124.664 32.8581 124.341 33.4293C124.021 33.9961 123.61 34.4864 123.106 34.9002C122.607 35.3095 122.035 35.6267 121.392 35.8516C120.749 36.0765 120.047 36.1889 119.287 36.1889C118.09 36.1889 117.024 35.9055 116.089 35.3388C115.153 34.7675 114.415 33.9511 113.876 32.8896C113.34 31.828 113.073 30.5618 113.073 29.0909C113.073 27.6155 113.343 26.3493 113.882 25.2923C114.422 24.2307 115.16 23.4165 116.096 22.8498C117.031 22.2785 118.095 21.9929 119.287 21.9929C120.02 21.9929 120.704 22.0986 121.338 22.31C121.977 22.5169 122.55 22.8228 123.059 23.2276C123.567 23.628 123.987 24.1183 124.32 24.6985C124.653 25.2743 124.878 25.9332 124.995 26.6754ZM127.49 36V22.1818H132.415C133.486 22.1818 134.374 22.3662 135.08 22.7351C135.791 23.1039 136.322 23.6145 136.673 24.2667C137.024 24.9144 137.199 25.6634 137.199 26.5135C137.199 27.3591 137.021 28.1036 136.666 28.7468C136.315 29.3855 135.784 29.8826 135.074 30.2379C134.367 30.5933 133.479 30.771 132.408 30.771H128.677V28.9762H132.22C132.894 28.9762 133.443 28.8795 133.866 28.6861C134.293 28.4927 134.606 28.2115 134.804 27.8427C135.002 27.4738 135.101 27.0308 135.101 26.5135C135.101 25.9917 134.999 25.5397 134.797 25.1573C134.599 24.775 134.286 24.4826 133.859 24.2802C133.436 24.0733 132.881 23.9698 132.193 23.9698H129.575V36H127.49ZM134.311 29.7656L137.725 36H135.35L132.004 29.7656H134.311ZM139.736 36V22.1818H148.399V23.9766H141.821V28.1868H147.947V29.9748H141.821V34.2053H148.48V36H139.736ZM152.351 36H150.138L155.111 22.1818H157.52L162.492 36H160.279L156.373 24.6918H156.265L152.351 36ZM152.722 30.5888H159.901V32.343H152.722V30.5888ZM162.174 23.9766V22.1818H172.868V23.9766H168.556V36H166.478V23.9766H162.174ZM175.231 36V22.1818H183.894V23.9766H177.316V28.1868H183.442V29.9748H177.316V34.2053H183.975V36H175.231ZM191.153 36H186.679V22.1818H191.294C192.648 22.1818 193.811 22.4585 194.783 23.0117C195.754 23.5605 196.499 24.3499 197.016 25.38C197.538 26.4055 197.799 27.6358 197.799 29.0707C197.799 30.5101 197.535 31.747 197.009 32.7816C196.487 33.8162 195.732 34.6123 194.742 35.1701C193.753 35.7234 192.556 36 191.153 36ZM188.764 34.1783H191.038C192.09 34.1783 192.965 33.9804 193.663 33.5845C194.36 33.1842 194.882 32.6062 195.228 31.8505C195.574 31.0903 195.747 30.1637 195.747 29.0707C195.747 27.9866 195.574 27.0668 195.228 26.3111C194.886 25.5554 194.376 24.9819 193.696 24.5906C193.017 24.1992 192.174 24.0036 191.166 24.0036H188.764V34.1783ZM205.419 36V22.1818H210.48C211.46 22.1818 212.272 22.3437 212.916 22.6676C213.559 22.987 214.04 23.421 214.359 23.9698C214.679 24.5141 214.839 25.1281 214.839 25.8118C214.839 26.3875 214.733 26.8733 214.521 27.2692C214.31 27.6605 214.027 27.9754 213.671 28.2138C213.32 28.4477 212.934 28.6186 212.511 28.7266V28.8615C212.97 28.884 213.417 29.0324 213.853 29.3068C214.294 29.5767 214.659 29.9613 214.946 30.4606C215.234 30.9599 215.378 31.5671 215.378 32.2823C215.378 32.9885 215.212 33.6228 214.879 34.185C214.551 34.7428 214.042 35.1858 213.354 35.5142C212.666 35.8381 211.787 36 210.716 36H205.419ZM207.504 34.212H210.514C211.512 34.212 212.227 34.0186 212.659 33.6317C213.091 33.2449 213.307 32.7614 213.307 32.1811C213.307 31.7448 213.197 31.3445 212.976 30.9801C212.756 30.6158 212.441 30.3256 212.032 30.1097C211.627 29.8938 211.146 29.7859 210.588 29.7859H207.504V34.212ZM207.504 28.1598H210.298C210.765 28.1598 211.186 28.0698 211.559 27.8899C211.937 27.71 212.236 27.4581 212.457 27.1342C212.682 26.8059 212.794 26.419 212.794 25.9737C212.794 25.4025 212.594 24.9234 212.194 24.5366C211.793 24.1497 211.179 23.9563 210.352 23.9563H207.504V28.1598ZM216.785 22.1818H219.153L222.763 28.4634H222.911L226.521 22.1818H228.889L223.876 30.5753V36H221.798V30.5753L216.785 22.1818ZM237.054 36H234.84L239.813 22.1818H242.222L247.195 36H244.981L241.075 24.6918H240.967L237.054 36ZM237.425 30.5888H244.604V32.343H237.425V30.5888ZM256.615 25.8118C256.543 25.1731 256.246 24.6783 255.725 24.3274C255.203 23.9721 254.546 23.7944 253.754 23.7944C253.188 23.7944 252.697 23.8844 252.284 24.0643C251.87 24.2397 251.548 24.4826 251.319 24.793C251.094 25.0988 250.981 25.4474 250.981 25.8388C250.981 26.1671 251.058 26.4505 251.211 26.6889C251.368 26.9273 251.573 27.1275 251.825 27.2894C252.081 27.4469 252.356 27.5795 252.648 27.6875C252.94 27.791 253.221 27.8764 253.491 27.9439L254.841 28.2947C255.282 28.4027 255.734 28.5489 256.197 28.7333C256.66 28.9177 257.09 29.1606 257.486 29.462C257.881 29.7634 258.201 30.1367 258.444 30.582C258.691 31.0273 258.815 31.5604 258.815 32.1811C258.815 32.9638 258.612 33.6587 258.208 34.266C257.807 34.8732 257.225 35.3523 256.46 35.7031C255.7 36.054 254.78 36.2294 253.7 36.2294C252.666 36.2294 251.771 36.0652 251.015 35.7369C250.259 35.4085 249.668 34.9429 249.241 34.3402C248.813 33.733 248.577 33.0133 248.532 32.1811H250.624C250.664 32.6804 250.826 33.0965 251.11 33.4293C251.397 33.7577 251.764 34.0028 252.209 34.1648C252.659 34.3222 253.152 34.4009 253.687 34.4009C254.276 34.4009 254.8 34.3087 255.259 34.1243C255.722 33.9354 256.087 33.6745 256.352 33.3416C256.617 33.0043 256.75 32.6107 256.75 32.1609C256.75 31.7515 256.633 31.4164 256.399 31.1555C256.17 30.8946 255.857 30.6787 255.461 30.5078C255.07 30.3369 254.627 30.1862 254.132 30.0558L252.499 29.6104C251.393 29.3091 250.516 28.866 249.868 28.2812C249.225 27.6965 248.903 26.9228 248.903 25.9602C248.903 25.1641 249.119 24.4691 249.551 23.8754C249.983 23.2816 250.568 22.8205 251.305 22.4922C252.043 22.1593 252.875 21.9929 253.802 21.9929C254.737 21.9929 255.563 22.1571 256.278 22.4854C256.998 22.8138 257.564 23.2659 257.978 23.8416C258.392 24.4129 258.608 25.0696 258.626 25.8118H256.615ZM263.391 22.1818V36H261.306V22.1818H263.391ZM266.427 36V22.1818H274.996V23.9766H268.512V28.1868H274.382V29.9748H268.512V36H266.427ZM283.756 36H281.543L286.515 22.1818H288.924L293.897 36H291.684L287.777 24.6918H287.669L283.756 36ZM284.127 30.5888H291.306V32.343H284.127V30.5888ZM295.892 36V22.1818H297.977V34.2053H304.238V36H295.892ZM308.702 22.1818V36H306.617V22.1818H308.702Z" fill="white"/>
</svg>
